<?xml version="1.0" encoding="utf-8"?>
<!-- Generator: Adobe Illustrator 25.4.1, SVG Export Plug-In . SVG Version: 6.00 Build 0)  -->
<svg version="1.1" id="Layer_1" xmlns="http://www.w3.org/2000/svg" xmlns:xlink="http://www.w3.org/1999/xlink" x="0px" y="0px"
	 viewBox="0 0 61.2 68" style="enable-background:new 0 0 61.2 68;" xml:space="preserve">
<style type="text/css">
	.st0{fill-rule:evenodd;clip-rule:evenodd;fill:#4A176D;}
	.st1{fill-rule:evenodd;clip-rule:evenodd;fill:#00B0AD;}
</style>
<path class="st0" d="M31.4,38.6c-1,0.5-1.1,0.6-1.6,0.6c-0.2,0-0.7-0.3-1.1-0.6c0,0-0.3-0.2-1.2-0.8c-0.6-0.4-0.8-0.6-1.3-0.6
	c-0.5,0-0.8,0.2-3.1,1.4c-1.5,0.8-1.1,1-0.3,1.6c2.3,1.5,1,0.6,4.1,2.7c1,0.6,1.6,1.1,2.1,1.1c0.5,0,1.5-0.5,4.7-2.2
	c8.6-4.6,16.1-8.5,22.6-12L57,25L31.4,38.6z"/>
<path class="st0" d="M27.7,58.8c-1.5,0.8-1.6,0.6-2.7-0.1c-3.2-2-13.9-8.9-16.2-10.4c-0.6-0.4-1.3-0.7-1.7-0.7
	c-0.5,0-0.6,0.2-1.9,0.8c-2.7,1.4-2.5,1.4-1.9,1.8C4,50.6,20.1,61,24,63.5c0.5,0.3,0.9,0.5,1.4,0.5c0.5,0,1.2-0.2,1.9-0.5
	c10-5.2,18.5-9.7,25.9-13.6L54,45C46.5,48.9,37.9,53.4,27.7,58.8z"/>
<path class="st0" d="M28.6,48.7c-0.9,0.5-1.1,0.5-1.6,0.5c-0.3,0-0.9-0.4-1.7-0.9c-2.6-1.7-7-4.3-7.3-4.5c0,0-0.3-0.2-1-0.7
	c-0.6-0.4-1-0.7-1.6-0.7c-0.5,0-0.6,0-1.7,0.6c-2.8,1.5-3,1.6-2.5,1.9c3.4,2.2,6.8,4.3,13.2,8.3c1.1,0.7,1.2,0.7,1.7,0.7
	c0.5,0,0.8,0,1.6-0.4c10.2-5.3,19-9.8,26.5-13.7L55,35C47.5,38.9,38.8,43.4,28.6,48.7z"/>
<path class="st1" d="M31.3,29.8c0.2,0,0.7,0.3,1.1,0.6c0,0,0.3,0.2,1.2,0.8c0.6,0.4,0.8,0.6,1.3,0.6c0.5,0,0.8-0.2,3.1-1.4
	c1.5-0.8,1.1-1.1,0.3-1.6c-2.3-1.5-1-0.6-4.1-2.7c-1-0.6-1.6-1.1-2.1-1.1c-0.5,0-1.5,0.5-4.7,2.2c-8.6,4.6-16.1,8.5-22.6,12L4,44
	l25.6-13.6C30.6,29.9,30.7,29.8,31.3,29.8z"/>
<path class="st1" d="M35.9,11.3c3.2,2.1,13.9,8.9,16.2,10.5c0.6,0.4,1.3,0.7,1.7,0.7c0.5,0,0.6-0.2,1.9-0.8c2.7-1.4,2.5-1.4,1.9-1.8
	C57,19.5,40.9,9,37,6.5C36.5,6.2,36.1,6,35.6,6c-0.5,0-1.2,0.2-1.9,0.5c-10,5.2-18.5,9.7-25.8,13.6L7,25c7.4-3.9,16.1-8.4,26.2-13.8
	C34.7,10.5,34.8,10.6,35.9,11.3z"/>
<path class="st1" d="M33,19.8c0.3,0,0.9,0.4,1.7,0.9c2.6,1.7,7,4.3,7.3,4.5c0,0,0.3,0.2,1,0.7c0.6,0.4,1,0.7,1.6,0.7
	c0.5,0,0.6,0,1.7-0.6c2.8-1.5,3-1.6,2.5-1.9c-3.4-2.2-6.8-4.3-13.2-8.4C34.4,15,34.4,15,33.9,15c-0.5,0-0.8,0-1.6,0.4
	c-10.2,5.3-18.9,9.8-26.4,13.7L5,34c7.5-3.9,16.2-8.4,26.4-13.6C32.3,19.9,32.5,19.8,33,19.8z"/>
</svg>
