<?xml version="1.0" encoding="utf-8"?>
<!-- Generator: Adobe Illustrator 25.4.1, SVG Export Plug-In . SVG Version: 6.00 Build 0)  -->
<svg version="1.1" id="Layer_1" xmlns="http://www.w3.org/2000/svg" xmlns:xlink="http://www.w3.org/1999/xlink" x="0px" y="0px"
	 viewBox="0 0 51 18" style="enable-background:new 0 0 51 18;" xml:space="preserve">
<style type="text/css">
	.st0{fill:#25338E;}
</style>
<g>
	<path class="st0" d="M8.8,17.2c-1.1,0-2.2-0.2-3.2-0.6c-1-0.4-1.9-0.9-2.6-1.6c-0.7-0.7-1.2-1.5-1.7-2.5c-0.4-1-0.6-2-0.6-3.1
		s0.2-2.1,0.6-3.1s1-1.7,1.7-2.5s1.6-1.2,2.6-1.6c1-0.4,2.1-0.6,3.2-0.6c1.2,0,2.4,0.2,3.4,0.6c1.1,0.5,1.9,1.1,2.6,2l-1.9,1.7
		c-0.5-0.6-1.1-1-1.9-1.4C10.4,4.3,9.6,4,8.8,4S7.3,4.2,6.5,4.4C5.9,4.7,5.3,5,4.8,5.5s-0.9,1-1.1,1.7C3.4,7.9,3.3,8.6,3.3,9.4
		c0,0.7,0.1,1.5,0.4,2.1c0.2,0.6,0.6,1.2,1.1,1.7s1,0.9,1.7,1.1c0.7,0.2,1.4,0.4,2.2,0.4s1.5-0.1,2.2-0.5c0.6-0.2,1.2-0.7,1.9-1.4
		l1.9,1.7c-0.7,0.9-1.6,1.5-2.6,1.9C11.1,16.9,10,17.2,8.8,17.2z"/>
	<path class="st0" d="M24.2,17.2c-1.2,0-2.2-0.2-3.2-0.6c-1-0.4-1.9-0.9-2.6-1.6c-0.7-0.7-1.4-1.5-1.7-2.5c-0.4-1-0.6-2-0.6-3.1
		s0.2-2.1,0.6-3.1c0.4-1,1-1.7,1.7-2.5C19.1,3.1,20,2.6,21,2.2c1-0.4,2.1-0.6,3.2-0.6c1.2,0,2.5,0.2,3.5,0.6s1.9,1,2.6,1.9l-1.7,1.7
		c-0.6-0.6-1.2-1-1.9-1.4C25.9,4.2,25.2,4,24.4,4c-0.7,0-1.5,0.1-2.2,0.4C21.6,4.7,21,5,20.5,5.5c-0.5,0.5-0.9,1-1.1,1.7
		C19.1,7.9,19,8.6,19,9.4c0,0.7,0.1,1.5,0.4,2.1c0.2,0.6,0.6,1.2,1.1,1.7c0.5,0.5,1.1,0.9,1.7,1.1c0.6,0.2,1.4,0.4,2.2,0.4
		c0.7,0,1.5-0.1,2.2-0.4c0.7-0.2,1.4-0.6,2-1.2l1.6,2.1c-0.7,0.6-1.7,1.1-2.7,1.5C26.6,17.1,25.3,17.2,24.2,17.2z M27.5,14.9V9.1
		h2.6v6.1L27.5,14.9z"/>
	<path class="st0" d="M33.9,17V1.8h2.4l6.6,11.1h-1.2l6.5-11.1h2.4L50.6,17h-2.6V6h0.6L43,15.2h-1.2L36.1,6h0.6V17H33.9z"/>
</g>
</svg>
