<svg id="Layer_1" data-name="Layer 1" xmlns="http://www.w3.org/2000/svg" viewBox="0 0 74 24"><rect width="74" height="24" style="fill:none"/><path d="M29.92,17.56a6.18,6.18,0,0,1-2.26-.41A5.4,5.4,0,0,1,25.84,16a5.46,5.46,0,0,1-1.2-1.75,5.84,5.84,0,0,1,0-4.4,5.33,5.33,0,0,1,1.21-1.75A5.5,5.5,0,0,1,27.67,7a6.56,6.56,0,0,1,4.67,0,4.78,4.78,0,0,1,1.83,1.34L32.89,9.56A3.8,3.8,0,0,0,30,8.3a4.17,4.17,0,0,0-1.53.28,3.41,3.41,0,0,0-1.21.78,3.49,3.49,0,0,0-.79,1.19,4.08,4.08,0,0,0,0,3,3.49,3.49,0,0,0,.79,1.19,3.41,3.41,0,0,0,1.21.78,4.17,4.17,0,0,0,1.53.28,3.85,3.85,0,0,0,1.56-.32,3.66,3.66,0,0,0,1.3-.95l1.28,1.22a5,5,0,0,1-1.83,1.33A6.29,6.29,0,0,1,29.92,17.56Z" transform="translate(0.28 0.33)" style="fill:#fff"/><path d="M40.84,17.56a6.35,6.35,0,0,1-2.3-.41A5.61,5.61,0,0,1,36.72,16a5.33,5.33,0,0,1-1.21-1.75,6,6,0,0,1,0-4.4,5.21,5.21,0,0,1,1.22-1.75A5.59,5.59,0,0,1,38.57,7a6.78,6.78,0,0,1,4.75,0A4.65,4.65,0,0,1,45.16,8.3L43.91,9.53a4.2,4.2,0,0,0-1.35-.93A4.15,4.15,0,0,0,41,8.3a4.36,4.36,0,0,0-1.55.28,3.53,3.53,0,0,0-1.24.78,3.38,3.38,0,0,0-.8,1.19,4.18,4.18,0,0,0,0,3,3.71,3.71,0,0,0,.8,1.2,3.54,3.54,0,0,0,1.22.78,4.33,4.33,0,0,0,1.56.28,4.64,4.64,0,0,0,1.53-.26,4.1,4.1,0,0,0,1.42-.84L45,16.2a5.83,5.83,0,0,1-2,1A7.48,7.48,0,0,1,40.84,17.56Zm2.31-1.62v-4H45V16.2Z" transform="translate(0.28 0.33)" style="fill:#fff"/><path d="M47.64,17.4V6.72h1.63l4.67,7.8h-.85l4.59-7.8h1.64V17.4H57.45V9.66h.4l-3.91,6.52H53l-4-6.52h.46V17.4Z" transform="translate(0.28 0.33)" style="fill:#fff"/></svg>