<?xml version="1.0" encoding="utf-8"?>
<!-- Generator: Adobe Illustrator 25.4.1, SVG Export Plug-In . SVG Version: 6.00 Build 0)  -->
<svg version="1.1" id="Layer_1" xmlns="http://www.w3.org/2000/svg" xmlns:xlink="http://www.w3.org/1999/xlink" x="0px" y="0px"
	 viewBox="0 0 51 18" style="enable-background:new 0 0 51 18;" xml:space="preserve">
<style type="text/css">
	.st0{fill:none;}
	.st1{fill:#FFFFFF;}
</style>
<rect x="-16.5" y="-3" class="st0" width="74" height="24"/>
<g>
	<path class="st1" d="M8.7,17.2c-1.1,0-2.2-0.2-3.2-0.6c-1-0.4-1.8-0.9-2.6-1.6c-0.7-0.7-1.3-1.6-1.7-2.5c-0.8-2-0.8-4.3,0-6.3
		c0.4-0.9,1-1.8,1.7-2.5c0.8-0.7,1.6-1.2,2.6-1.6c2.1-0.8,4.5-0.8,6.7,0c1,0.4,1.9,1.1,2.6,1.9l-1.8,1.7C11.9,4.7,10.4,4,8.8,4
		C8.1,4,7.3,4.2,6.6,4.4C6,4.7,5.4,5.1,4.9,5.5C4.4,6,4,6.6,3.8,7.2c-0.5,1.4-0.5,2.9,0,4.3c0.3,0.6,0.6,1.2,1.1,1.7
		c0.5,0.5,1.1,0.9,1.7,1.1c0.7,0.3,1.4,0.4,2.2,0.4c0.8,0,1.5-0.2,2.2-0.5c0.7-0.3,1.3-0.8,1.9-1.4l1.8,1.7
		c-0.7,0.8-1.6,1.5-2.6,1.9C11,17,9.9,17.2,8.7,17.2z"/>
	<path class="st1" d="M24.2,17.2c-1.1,0-2.2-0.2-3.3-0.6c-1-0.4-1.8-0.9-2.6-1.6c-0.7-0.7-1.3-1.6-1.7-2.5c-0.8-2-0.8-4.3,0-6.3
		c0.4-0.9,1-1.8,1.7-2.5C19.2,3.1,20,2.5,21,2.2c2.2-0.8,4.6-0.8,6.8,0c1,0.4,1.9,1,2.6,1.9l-1.8,1.8c-0.5-0.6-1.2-1-1.9-1.3
		C26,4.2,25.2,4,24.5,4c-0.8,0-1.5,0.1-2.2,0.4c-0.7,0.2-1.3,0.6-1.8,1.1C20,6,19.6,6.6,19.4,7.2c-0.5,1.4-0.5,2.9,0,4.3
		c0.3,0.6,0.7,1.2,1.1,1.7c0.5,0.5,1.1,0.9,1.7,1.1c0.7,0.3,1.5,0.4,2.2,0.4c0.7,0,1.5-0.1,2.2-0.4c0.7-0.3,1.4-0.7,2-1.2l1.5,2.1
		c-0.8,0.7-1.8,1.1-2.8,1.4C26.3,17,25.3,17.2,24.2,17.2z M27.5,14.9V9.2h2.6v6.1L27.5,14.9z"/>
	<path class="st1" d="M33.9,17V1.8h2.3l6.7,11.1h-1.2l6.5-11.1h2.3V17h-2.7V6h0.6l-5.6,9.3h-1.3L35.9,6h0.7v11H33.9z"/>
</g>
</svg>
