<svg id="Layer_1" data-name="Layer 1" xmlns="http://www.w3.org/2000/svg" viewBox="0 0 41.4 36.36"><path d="M41.87,1a10.6,10.6,0,0,0-.49,1.92q-1.85,8.27-3.68,16.53-1.87,8.46-3.76,16.92a2.11,2.11,0,0,1-.19.67L29,33.2l-6.41-5.1c-.21-.17-.32-.17-.52,0l-6.16,6.18c-.23.23-.31.27-.45-.08-1.6-4-3.23-8.09-4.83-12.13a.84.84,0,0,0-.54-.53L.47,17.88l1.12-.48L41.75.67l.12,0ZM29.6,11.46l-.06-.06-.1,0q-8.14,4.85-16.3,9.69c-.25.15-.2.28-.12.48l2.65,6.6a.39.39,0,0,0,.15.25c.49-1.83,1-3.64,1.44-5.46a1.35,1.35,0,0,1,.41-.66l11.2-10.2C29.11,11.91,29.35,11.68,29.6,11.46Z" transform="translate(-0.47 -0.64)" style="fill:#fff"/></svg>