<?xml version="1.0" encoding="utf-8"?>
<!-- Generator: Adobe Illustrator 25.4.1, SVG Export Plug-In . SVG Version: 6.00 Build 0)  -->
<svg version="1.1" id="Layer_1" xmlns="http://www.w3.org/2000/svg" xmlns:xlink="http://www.w3.org/1999/xlink" x="0px" y="0px"
	 viewBox="0 0 27.5 21.6" style="enable-background:new 0 0 27.5 21.6;" xml:space="preserve">
<style type="text/css">
	.st0{fill:url(#SVGID_1_);}
	.st1{fill:url(#SVGID_00000014611891964688547430000013452529947039263670_);}
	.st2{fill:url(#SVGID_00000096033887774367330790000007284154723299588796_);}
</style>
<linearGradient id="SVGID_1_" gradientUnits="userSpaceOnUse" x1="3.2414" y1="15.0514" x2="27.6214" y2="-9.3386" gradientTransform="matrix(1 0 0 -1 -6.03 14.7)">
	<stop  offset="0" style="stop-color:#2A388B"/>
	<stop  offset="1" style="stop-color:#154A8D"/>
</linearGradient>
<path class="st0" d="M27,15.6c-0.3-0.3-0.7-0.4-1.1-0.3l-6.7,2.3c-1.1,0.4-2.2,0.4-3.3,0.1l-7.2-1.5l4.9-1.1
	c0.8-0.2,1.4-1.1,1.1-1.9c-0.2-0.7-0.8-1.2-1.5-1.2h-4c-0.7,0-1.5,0.2-2.2,0.5l-2.5,1.1v7.3l10.9,0.9c1.8,0.1,3.6-0.2,5.2-1.1
	l6.1-3.2c0.5-0.3,0.7-1,0.4-1.5C27.1,15.7,27,15.6,27,15.6z"/>
<linearGradient id="SVGID_00000065753616889368976700000004032698270484106910_" gradientUnits="userSpaceOnUse" x1="-9.31" y1="17.83" x2="15.07" y2="-6.55" gradientTransform="matrix(1 0 0 -1 0 24)">
	<stop  offset="0" style="stop-color:#2A388B"/>
	<stop  offset="1" style="stop-color:#154A8D"/>
</linearGradient>
<rect y="12.6" style="fill:url(#SVGID_00000065753616889368976700000004032698270484106910_);" width="3.1" height="8.8"/>
<linearGradient id="SVGID_00000152949174554107378420000007015875153316259755_" gradientUnits="userSpaceOnUse" x1="5.6893" y1="32.8293" x2="30.0793" y2="8.4493" gradientTransform="matrix(1 0 0 -1 0 24)">
	<stop  offset="0" style="stop-color:#2A388B"/>
	<stop  offset="1" style="stop-color:#154A8D"/>
</linearGradient>
<polygon style="fill:url(#SVGID_00000152949174554107378420000007015875153316259755_);" points="12,0 8.6,3.6 18,13.1 20.6,10.5 
	27.5,3.6 24.1,0 "/>
</svg>
