<svg id="Layer_1" data-name="Layer 1" xmlns="http://www.w3.org/2000/svg" xmlns:xlink="http://www.w3.org/1999/xlink" viewBox="0 0 27.49 21.62"><defs><linearGradient id="linear-gradient" x1="3.24" y1="8.95" x2="27.62" y2="33.34" gradientUnits="userSpaceOnUse"><stop offset="0" stop-color="#207fc3"/><stop offset="1" stop-color="#154a8d"/></linearGradient><linearGradient id="linear-gradient-2" x1="-9.31" y1="6.17" x2="15.07" y2="30.55" xlink:href="#linear-gradient"/><linearGradient id="linear-gradient-3" x1="5.69" y1="-8.83" x2="30.08" y2="15.55" xlink:href="#linear-gradient"/></defs><path d="M33,24.89a1.1,1.1,0,0,0-1.09-.3l-6.67,2.25a5.66,5.66,0,0,1-3.31.09l-7.22-1.5,4.86-1.11a1.58,1.58,0,0,0-.39-3.11H15.14a5.46,5.46,0,0,0-2.18.45l-2.5,1.09V30l10.93.87a9.51,9.51,0,0,0,5.21-1.07l6.13-3.23A1.09,1.09,0,0,0,33,24.89Z" transform="translate(-6.03 -9.3)" style="fill:url(#linear-gradient)"/><rect y="12.62" width="3.08" height="8.8" style="fill:url(#linear-gradient-2)"/><polygon points="11.99 0 8.59 3.63 18.04 13.08 20.65 10.47 27.49 3.63 24.09 0 11.99 0" style="fill:url(#linear-gradient-3)"/></svg>