<svg id="Layer_1" data-name="Layer 1" xmlns="http://www.w3.org/2000/svg" xmlns:xlink="http://www.w3.org/1999/xlink" viewBox="0 0 32.35 16.02"><defs><linearGradient id="linear-gradient" x1="15.86" y1="19.47" x2="22.29" y2="19.47" gradientUnits="userSpaceOnUse"><stop offset="0" stop-color="#207fc3"/><stop offset="1" stop-color="#154a8d"/></linearGradient><linearGradient id="linear-gradient-2" x1="3.6" y1="20.17" x2="35.95" y2="20.17" xlink:href="#linear-gradient"/></defs><path d="M19.08,16.26a3.21,3.21,0,1,0,3.21,3.21A3.21,3.21,0,0,0,19.08,16.26Zm-.54,3.57a.94.94,0,1,1,.94-.94A.94.94,0,0,1,18.54,19.83Z" transform="translate(-3.6 -12.16)" style="fill:url(#linear-gradient)"/><path d="M19.77,12.16c-8.93,0-16.17,8-16.17,8s7.24,8,16.17,8,16.18-8,16.18-8S28.71,12.16,19.77,12.16Zm0,14.41a6.4,6.4,0,1,1,6.4-6.4A6.41,6.41,0,0,1,19.77,26.57Z" transform="translate(-3.6 -12.16)" style="fill:url(#linear-gradient-2)"/></svg>