<?xml version="1.0" encoding="utf-8"?>
<!-- Generator: Adobe Illustrator 25.4.1, SVG Export Plug-In . SVG Version: 6.00 Build 0)  -->
<svg version="1.1" id="Layer_1" xmlns="http://www.w3.org/2000/svg" xmlns:xlink="http://www.w3.org/1999/xlink" x="0px" y="0px"
	 viewBox="0 0 32.3 16" style="enable-background:new 0 0 32.3 16;" xml:space="preserve">
<style type="text/css">
	.st0{fill:url(#SVGID_1_);}
	.st1{fill:url(#SVGID_00000091726305249720677910000015366822086623440530_);}
</style>
<linearGradient id="SVGID_1_" gradientUnits="userSpaceOnUse" x1="15.86" y1="-1.47" x2="22.29" y2="-1.47" gradientTransform="matrix(1 0 0 -1 -3.6 5.84)">
	<stop  offset="0" style="stop-color:#223F8C"/>
	<stop  offset="1" style="stop-color:#154A8D"/>
</linearGradient>
<path class="st0" d="M15.5,4.1c-1.8,0-3.2,1.4-3.2,3.2c0,1.8,1.4,3.2,3.2,3.2c1.8,0,3.2-1.4,3.2-3.2C18.7,5.5,17.3,4.1,15.5,4.1
	L15.5,4.1z M14.9,7.7c-0.5,0-0.9-0.4-0.9-0.9c0-0.5,0.4-0.9,0.9-0.9c0.5,0,0.9,0.4,0.9,0.9S15.5,7.7,14.9,7.7z"/>
<linearGradient id="SVGID_00000073680893066411491600000013809831840140327328_" gradientUnits="userSpaceOnUse" x1="3.6" y1="-2.16" x2="35.95" y2="-2.16" gradientTransform="matrix(1 0 0 -1 -3.6 5.84)">
	<stop  offset="0" style="stop-color:#2A388B"/>
	<stop  offset="1" style="stop-color:#154A8D"/>
</linearGradient>
<path style="fill:url(#SVGID_00000073680893066411491600000013809831840140327328_);" d="M16.2,0C7.2,0,0,8,0,8s7.2,8,16.2,8
	s16.2-8,16.2-8S25.1,0,16.2,0z M16.2,14.4c-3.5,0-6.4-2.9-6.4-6.4s2.9-6.4,6.4-6.4s6.4,2.9,6.4,6.4c0,0,0,0,0,0
	C22.6,11.5,19.7,14.4,16.2,14.4z"/>
</svg>
